<mxfile host="app.diagrams.net" modified="2022-04-29T14:17:28.398Z" agent="5.0 (Macintosh; Intel Mac OS X 10_15_7) AppleWebKit/537.36 (KHTML, like Gecko) Chrome/100.0.4896.127 Safari/537.36" etag="rIbjJb1qurHwqMMGYR8o" version="17.5.0" type="github">
  <diagram id="C5RBs43oDa-KdzZeNtuy" name="Page-1">
    <mxGraphModel dx="599" dy="1879" grid="1" gridSize="10" guides="1" tooltips="1" connect="1" arrows="1" fold="1" page="1" pageScale="1" pageWidth="827" pageHeight="1169" math="0" shadow="0">
      <root>
        <mxCell id="WIyWlLk6GJQsqaUBKTNV-0" />
        <mxCell id="WIyWlLk6GJQsqaUBKTNV-1" parent="WIyWlLk6GJQsqaUBKTNV-0" />
        <mxCell id="Cpn81vxbiHAbHOQu9__5-270" value="Api-tesing-framework" style="rounded=1;whiteSpace=wrap;html=1;fillColor=#fff2cc;strokeColor=#d6b656;" parent="WIyWlLk6GJQsqaUBKTNV-1" vertex="1">
          <mxGeometry x="1470" y="930" width="120" height="60" as="geometry" />
        </mxCell>
        <mxCell id="Cpn81vxbiHAbHOQu9__5-271" value="helpers" style="rounded=0;whiteSpace=wrap;html=1;fillColor=#d5e8d4;strokeColor=#82b366;" parent="WIyWlLk6GJQsqaUBKTNV-1" vertex="1">
          <mxGeometry x="1480" y="1090" width="100" height="40" as="geometry" />
        </mxCell>
        <mxCell id="Cpn81vxbiHAbHOQu9__5-272" value="" style="endArrow=none;html=1;rounded=0;" parent="WIyWlLk6GJQsqaUBKTNV-1" edge="1">
          <mxGeometry width="50" height="50" relative="1" as="geometry">
            <mxPoint x="1270" y="1050" as="sourcePoint" />
            <mxPoint x="1840" y="1050" as="targetPoint" />
            <Array as="points" />
          </mxGeometry>
        </mxCell>
        <mxCell id="Cpn81vxbiHAbHOQu9__5-273" value="" style="endArrow=classic;html=1;rounded=0;" parent="WIyWlLk6GJQsqaUBKTNV-1" edge="1">
          <mxGeometry width="50" height="50" relative="1" as="geometry">
            <mxPoint x="1529.92" y="1050" as="sourcePoint" />
            <mxPoint x="1529.92" y="1090" as="targetPoint" />
          </mxGeometry>
        </mxCell>
        <mxCell id="Cpn81vxbiHAbHOQu9__5-274" value="UserManagement" style="rounded=0;whiteSpace=wrap;html=1;fillColor=#dae8fc;strokeColor=#6c8ebf;" parent="WIyWlLk6GJQsqaUBKTNV-1" vertex="1">
          <mxGeometry x="1629" y="1150" width="101" height="30" as="geometry" />
        </mxCell>
        <mxCell id="Cpn81vxbiHAbHOQu9__5-275" value="data" style="rounded=0;whiteSpace=wrap;html=1;fillColor=#d5e8d4;strokeColor=#82b366;" parent="WIyWlLk6GJQsqaUBKTNV-1" vertex="1">
          <mxGeometry x="1350" y="1090" width="100" height="40" as="geometry" />
        </mxCell>
        <mxCell id="Cpn81vxbiHAbHOQu9__5-276" value="tests" style="rounded=0;whiteSpace=wrap;html=1;fillColor=#d5e8d4;strokeColor=#82b366;" parent="WIyWlLk6GJQsqaUBKTNV-1" vertex="1">
          <mxGeometry x="1220" y="1090" width="100" height="40" as="geometry" />
        </mxCell>
        <mxCell id="Cpn81vxbiHAbHOQu9__5-277" value="context" style="rounded=0;whiteSpace=wrap;html=1;fillColor=#d5e8d4;strokeColor=#82b366;" parent="WIyWlLk6GJQsqaUBKTNV-1" vertex="1">
          <mxGeometry x="1611" y="1090" width="100" height="40" as="geometry" />
        </mxCell>
        <mxCell id="Cpn81vxbiHAbHOQu9__5-278" value="report" style="rounded=0;whiteSpace=wrap;html=1;fillColor=#d5e8d4;strokeColor=#82b366;" parent="WIyWlLk6GJQsqaUBKTNV-1" vertex="1">
          <mxGeometry x="1790" y="1090" width="100" height="40" as="geometry" />
        </mxCell>
        <mxCell id="Cpn81vxbiHAbHOQu9__5-279" value="" style="endArrow=classic;html=1;rounded=0;exitX=0.5;exitY=1;exitDx=0;exitDy=0;" parent="WIyWlLk6GJQsqaUBKTNV-1" source="Cpn81vxbiHAbHOQu9__5-270" edge="1">
          <mxGeometry width="50" height="50" relative="1" as="geometry">
            <mxPoint x="1529.92" y="1010" as="sourcePoint" />
            <mxPoint x="1529.92" y="1050" as="targetPoint" />
          </mxGeometry>
        </mxCell>
        <mxCell id="Cpn81vxbiHAbHOQu9__5-280" value="" style="endArrow=classic;html=1;rounded=0;" parent="WIyWlLk6GJQsqaUBKTNV-1" edge="1">
          <mxGeometry width="50" height="50" relative="1" as="geometry">
            <mxPoint x="1269.5800000000002" y="1050" as="sourcePoint" />
            <mxPoint x="1269.5800000000002" y="1090" as="targetPoint" />
          </mxGeometry>
        </mxCell>
        <mxCell id="Cpn81vxbiHAbHOQu9__5-281" value="" style="endArrow=classic;html=1;rounded=0;" parent="WIyWlLk6GJQsqaUBKTNV-1" edge="1">
          <mxGeometry width="50" height="50" relative="1" as="geometry">
            <mxPoint x="1399.75" y="1050" as="sourcePoint" />
            <mxPoint x="1399.75" y="1090" as="targetPoint" />
          </mxGeometry>
        </mxCell>
        <mxCell id="Cpn81vxbiHAbHOQu9__5-282" value="" style="endArrow=classic;html=1;rounded=0;" parent="WIyWlLk6GJQsqaUBKTNV-1" edge="1">
          <mxGeometry width="50" height="50" relative="1" as="geometry">
            <mxPoint x="1660.58" y="1050" as="sourcePoint" />
            <mxPoint x="1660.58" y="1090" as="targetPoint" />
          </mxGeometry>
        </mxCell>
        <mxCell id="Cpn81vxbiHAbHOQu9__5-283" value="" style="endArrow=classic;html=1;rounded=0;" parent="WIyWlLk6GJQsqaUBKTNV-1" edge="1">
          <mxGeometry width="50" height="50" relative="1" as="geometry">
            <mxPoint x="1839.78" y="1050" as="sourcePoint" />
            <mxPoint x="1839.78" y="1090" as="targetPoint" />
          </mxGeometry>
        </mxCell>
        <mxCell id="Cpn81vxbiHAbHOQu9__5-284" value="api_test.py" style="rounded=0;whiteSpace=wrap;html=1;" parent="WIyWlLk6GJQsqaUBKTNV-1" vertex="1">
          <mxGeometry x="1230" y="1160" width="89" height="20" as="geometry" />
        </mxCell>
        <mxCell id="Cpn81vxbiHAbHOQu9__5-285" value="" style="endArrow=none;html=1;rounded=0;" parent="WIyWlLk6GJQsqaUBKTNV-1" edge="1">
          <mxGeometry width="50" height="50" relative="1" as="geometry">
            <mxPoint x="1220" y="1180" as="sourcePoint" />
            <mxPoint x="1220" y="1130" as="targetPoint" />
          </mxGeometry>
        </mxCell>
        <mxCell id="Cpn81vxbiHAbHOQu9__5-286" value="" style="endArrow=none;html=1;rounded=0;" parent="WIyWlLk6GJQsqaUBKTNV-1" edge="1">
          <mxGeometry width="50" height="50" relative="1" as="geometry">
            <mxPoint x="1220" y="1169.92" as="sourcePoint" />
            <mxPoint x="1230" y="1169.92" as="targetPoint" />
          </mxGeometry>
        </mxCell>
        <mxCell id="Cpn81vxbiHAbHOQu9__5-287" value="assertion.py" style="rounded=0;whiteSpace=wrap;html=1;" parent="WIyWlLk6GJQsqaUBKTNV-1" vertex="1">
          <mxGeometry x="1491" y="1155" width="89" height="20" as="geometry" />
        </mxCell>
        <mxCell id="Cpn81vxbiHAbHOQu9__5-288" value="file_reader.py" style="rounded=0;whiteSpace=wrap;html=1;" parent="WIyWlLk6GJQsqaUBKTNV-1" vertex="1">
          <mxGeometry x="1491" y="1185" width="89" height="20" as="geometry" />
        </mxCell>
        <mxCell id="Cpn81vxbiHAbHOQu9__5-289" value="logger.py" style="rounded=0;whiteSpace=wrap;html=1;" parent="WIyWlLk6GJQsqaUBKTNV-1" vertex="1">
          <mxGeometry x="1491" y="1215" width="89" height="20" as="geometry" />
        </mxCell>
        <mxCell id="Cpn81vxbiHAbHOQu9__5-290" value="print_header.py" style="rounded=0;whiteSpace=wrap;html=1;" parent="WIyWlLk6GJQsqaUBKTNV-1" vertex="1">
          <mxGeometry x="1491" y="1245" width="89" height="20" as="geometry" />
        </mxCell>
        <mxCell id="Cpn81vxbiHAbHOQu9__5-291" value="request.py" style="rounded=0;whiteSpace=wrap;html=1;" parent="WIyWlLk6GJQsqaUBKTNV-1" vertex="1">
          <mxGeometry x="1491" y="1275" width="89" height="20" as="geometry" />
        </mxCell>
        <mxCell id="Cpn81vxbiHAbHOQu9__5-292" value="" style="endArrow=none;html=1;rounded=0;" parent="WIyWlLk6GJQsqaUBKTNV-1" edge="1">
          <mxGeometry width="50" height="50" relative="1" as="geometry">
            <mxPoint x="1481" y="1164.92" as="sourcePoint" />
            <mxPoint x="1491" y="1164.92" as="targetPoint" />
          </mxGeometry>
        </mxCell>
        <mxCell id="Cpn81vxbiHAbHOQu9__5-293" value="" style="endArrow=none;html=1;rounded=0;" parent="WIyWlLk6GJQsqaUBKTNV-1" edge="1">
          <mxGeometry width="50" height="50" relative="1" as="geometry">
            <mxPoint x="1480.9999999999998" y="1194.9" as="sourcePoint" />
            <mxPoint x="1490.9999999999998" y="1194.9" as="targetPoint" />
          </mxGeometry>
        </mxCell>
        <mxCell id="Cpn81vxbiHAbHOQu9__5-294" value="" style="endArrow=none;html=1;rounded=0;" parent="WIyWlLk6GJQsqaUBKTNV-1" edge="1">
          <mxGeometry width="50" height="50" relative="1" as="geometry">
            <mxPoint x="1480.9999999999998" y="1224.7999999999997" as="sourcePoint" />
            <mxPoint x="1490.9999999999998" y="1224.7999999999997" as="targetPoint" />
          </mxGeometry>
        </mxCell>
        <mxCell id="Cpn81vxbiHAbHOQu9__5-295" value="" style="endArrow=none;html=1;rounded=0;" parent="WIyWlLk6GJQsqaUBKTNV-1" edge="1">
          <mxGeometry width="50" height="50" relative="1" as="geometry">
            <mxPoint x="1480.9999999999998" y="1254.9" as="sourcePoint" />
            <mxPoint x="1490.9999999999998" y="1254.9" as="targetPoint" />
          </mxGeometry>
        </mxCell>
        <mxCell id="Cpn81vxbiHAbHOQu9__5-296" value="" style="endArrow=none;html=1;rounded=0;" parent="WIyWlLk6GJQsqaUBKTNV-1" edge="1">
          <mxGeometry width="50" height="50" relative="1" as="geometry">
            <mxPoint x="1480.9999999999998" y="1284.9" as="sourcePoint" />
            <mxPoint x="1490.9999999999998" y="1284.9" as="targetPoint" />
          </mxGeometry>
        </mxCell>
        <mxCell id="Cpn81vxbiHAbHOQu9__5-297" value="" style="endArrow=none;html=1;rounded=0;" parent="WIyWlLk6GJQsqaUBKTNV-1" edge="1">
          <mxGeometry width="50" height="50" relative="1" as="geometry">
            <mxPoint x="1480" y="1300" as="sourcePoint" />
            <mxPoint x="1480" y="1130" as="targetPoint" />
          </mxGeometry>
        </mxCell>
        <mxCell id="Cpn81vxbiHAbHOQu9__5-298" value="test_data.json" style="rounded=0;whiteSpace=wrap;html=1;" parent="WIyWlLk6GJQsqaUBKTNV-1" vertex="1">
          <mxGeometry x="1361" y="1160" width="89" height="20" as="geometry" />
        </mxCell>
        <mxCell id="Cpn81vxbiHAbHOQu9__5-299" value="" style="endArrow=none;html=1;rounded=0;" parent="WIyWlLk6GJQsqaUBKTNV-1" edge="1">
          <mxGeometry width="50" height="50" relative="1" as="geometry">
            <mxPoint x="1351" y="1169.92" as="sourcePoint" />
            <mxPoint x="1361" y="1169.92" as="targetPoint" />
          </mxGeometry>
        </mxCell>
        <mxCell id="Cpn81vxbiHAbHOQu9__5-300" value="" style="endArrow=none;html=1;rounded=0;" parent="WIyWlLk6GJQsqaUBKTNV-1" edge="1">
          <mxGeometry width="50" height="50" relative="1" as="geometry">
            <mxPoint x="1350" y="1180" as="sourcePoint" />
            <mxPoint x="1350" y="1130" as="targetPoint" />
          </mxGeometry>
        </mxCell>
        <mxCell id="Cpn81vxbiHAbHOQu9__5-301" value="MasterData" style="rounded=0;whiteSpace=wrap;html=1;fillColor=#dae8fc;strokeColor=#6c8ebf;" parent="WIyWlLk6GJQsqaUBKTNV-1" vertex="1">
          <mxGeometry x="1629" y="1190" width="101" height="30" as="geometry" />
        </mxCell>
        <mxCell id="Cpn81vxbiHAbHOQu9__5-302" value="Transaction" style="rounded=0;whiteSpace=wrap;html=1;fillColor=#dae8fc;strokeColor=#6c8ebf;" parent="WIyWlLk6GJQsqaUBKTNV-1" vertex="1">
          <mxGeometry x="1629" y="1230" width="101" height="30" as="geometry" />
        </mxCell>
        <mxCell id="Cpn81vxbiHAbHOQu9__5-303" value="OrderExeucution" style="rounded=0;whiteSpace=wrap;html=1;fillColor=#dae8fc;strokeColor=#6c8ebf;" parent="WIyWlLk6GJQsqaUBKTNV-1" vertex="1">
          <mxGeometry x="1629" y="1270" width="101" height="30" as="geometry" />
        </mxCell>
        <mxCell id="Cpn81vxbiHAbHOQu9__5-304" value="Logging" style="rounded=0;whiteSpace=wrap;html=1;fillColor=#dae8fc;strokeColor=#6c8ebf;" parent="WIyWlLk6GJQsqaUBKTNV-1" vertex="1">
          <mxGeometry x="1629" y="1310" width="101" height="30" as="geometry" />
        </mxCell>
        <mxCell id="Cpn81vxbiHAbHOQu9__5-305" value="Reporting" style="rounded=0;whiteSpace=wrap;html=1;fillColor=#dae8fc;strokeColor=#6c8ebf;" parent="WIyWlLk6GJQsqaUBKTNV-1" vertex="1">
          <mxGeometry x="1629" y="1350" width="101" height="30" as="geometry" />
        </mxCell>
        <mxCell id="Cpn81vxbiHAbHOQu9__5-306" value="" style="endArrow=none;html=1;rounded=0;" parent="WIyWlLk6GJQsqaUBKTNV-1" edge="1">
          <mxGeometry width="50" height="50" relative="1" as="geometry">
            <mxPoint x="1611" y="1380" as="sourcePoint" />
            <mxPoint x="1611" y="1130" as="targetPoint" />
          </mxGeometry>
        </mxCell>
        <mxCell id="Cpn81vxbiHAbHOQu9__5-307" value="Reporting" style="rounded=0;whiteSpace=wrap;html=1;fillColor=#dae8fc;strokeColor=#6c8ebf;" parent="WIyWlLk6GJQsqaUBKTNV-1" vertex="1">
          <mxGeometry x="1629" y="1350" width="101" height="30" as="geometry" />
        </mxCell>
        <mxCell id="Cpn81vxbiHAbHOQu9__5-308" value="" style="endArrow=none;html=1;rounded=0;entryX=0;entryY=0.5;entryDx=0;entryDy=0;" parent="WIyWlLk6GJQsqaUBKTNV-1" target="Cpn81vxbiHAbHOQu9__5-274" edge="1">
          <mxGeometry width="50" height="50" relative="1" as="geometry">
            <mxPoint x="1611" y="1164.88" as="sourcePoint" />
            <mxPoint x="1621" y="1164.88" as="targetPoint" />
          </mxGeometry>
        </mxCell>
        <mxCell id="Cpn81vxbiHAbHOQu9__5-309" value="" style="endArrow=none;html=1;rounded=0;entryX=0;entryY=0.5;entryDx=0;entryDy=0;" parent="WIyWlLk6GJQsqaUBKTNV-1" edge="1">
          <mxGeometry width="50" height="50" relative="1" as="geometry">
            <mxPoint x="1611" y="1205" as="sourcePoint" />
            <mxPoint x="1629" y="1205.12" as="targetPoint" />
          </mxGeometry>
        </mxCell>
        <mxCell id="Cpn81vxbiHAbHOQu9__5-310" value="" style="endArrow=none;html=1;rounded=0;entryX=0;entryY=0.5;entryDx=0;entryDy=0;" parent="WIyWlLk6GJQsqaUBKTNV-1" edge="1">
          <mxGeometry width="50" height="50" relative="1" as="geometry">
            <mxPoint x="1611" y="1245" as="sourcePoint" />
            <mxPoint x="1629" y="1245.12" as="targetPoint" />
          </mxGeometry>
        </mxCell>
        <mxCell id="Cpn81vxbiHAbHOQu9__5-311" value="" style="endArrow=none;html=1;rounded=0;entryX=0;entryY=0.5;entryDx=0;entryDy=0;" parent="WIyWlLk6GJQsqaUBKTNV-1" edge="1">
          <mxGeometry width="50" height="50" relative="1" as="geometry">
            <mxPoint x="1611" y="1284.88" as="sourcePoint" />
            <mxPoint x="1629" y="1285" as="targetPoint" />
          </mxGeometry>
        </mxCell>
        <mxCell id="Cpn81vxbiHAbHOQu9__5-312" value="" style="endArrow=none;html=1;rounded=0;entryX=0;entryY=0.5;entryDx=0;entryDy=0;" parent="WIyWlLk6GJQsqaUBKTNV-1" edge="1">
          <mxGeometry width="50" height="50" relative="1" as="geometry">
            <mxPoint x="1611" y="1324.88" as="sourcePoint" />
            <mxPoint x="1629" y="1325" as="targetPoint" />
          </mxGeometry>
        </mxCell>
        <mxCell id="Cpn81vxbiHAbHOQu9__5-313" value="" style="endArrow=none;html=1;rounded=0;entryX=0;entryY=0.5;entryDx=0;entryDy=0;" parent="WIyWlLk6GJQsqaUBKTNV-1" edge="1">
          <mxGeometry width="50" height="50" relative="1" as="geometry">
            <mxPoint x="1611" y="1364.88" as="sourcePoint" />
            <mxPoint x="1629" y="1365" as="targetPoint" />
          </mxGeometry>
        </mxCell>
        <mxCell id="Cpn81vxbiHAbHOQu9__5-314" value="test_report.html" style="rounded=0;whiteSpace=wrap;html=1;" parent="WIyWlLk6GJQsqaUBKTNV-1" vertex="1">
          <mxGeometry x="1800" y="1160" width="89" height="20" as="geometry" />
        </mxCell>
        <mxCell id="Cpn81vxbiHAbHOQu9__5-315" value="" style="endArrow=none;html=1;rounded=0;" parent="WIyWlLk6GJQsqaUBKTNV-1" edge="1">
          <mxGeometry width="50" height="50" relative="1" as="geometry">
            <mxPoint x="1790" y="1169.92" as="sourcePoint" />
            <mxPoint x="1800" y="1169.92" as="targetPoint" />
          </mxGeometry>
        </mxCell>
        <mxCell id="Cpn81vxbiHAbHOQu9__5-316" value="test_report.log" style="rounded=0;whiteSpace=wrap;html=1;" parent="WIyWlLk6GJQsqaUBKTNV-1" vertex="1">
          <mxGeometry x="1800" y="1190" width="89" height="20" as="geometry" />
        </mxCell>
        <mxCell id="Cpn81vxbiHAbHOQu9__5-317" value="" style="endArrow=none;html=1;rounded=0;" parent="WIyWlLk6GJQsqaUBKTNV-1" edge="1">
          <mxGeometry width="50" height="50" relative="1" as="geometry">
            <mxPoint x="1790" y="1199.96" as="sourcePoint" />
            <mxPoint x="1800" y="1199.96" as="targetPoint" />
          </mxGeometry>
        </mxCell>
        <mxCell id="Cpn81vxbiHAbHOQu9__5-318" value="" style="endArrow=none;html=1;rounded=0;" parent="WIyWlLk6GJQsqaUBKTNV-1" edge="1">
          <mxGeometry width="50" height="50" relative="1" as="geometry">
            <mxPoint x="1790" y="1210" as="sourcePoint" />
            <mxPoint x="1790.0000000000005" y="1130" as="targetPoint" />
          </mxGeometry>
        </mxCell>
        <mxCell id="Cpn81vxbiHAbHOQu9__5-319" value="Config" style="swimlane;fontStyle=2;align=center;verticalAlign=top;childLayout=stackLayout;horizontal=1;startSize=26;horizontalStack=0;resizeParent=1;resizeLast=0;collapsible=1;marginBottom=0;rounded=0;shadow=0;strokeWidth=1;" parent="WIyWlLk6GJQsqaUBKTNV-1" vertex="1">
          <mxGeometry x="1126" y="153" width="160" height="75" as="geometry">
            <mxRectangle x="230" y="140" width="160" height="26" as="alternateBounds" />
          </mxGeometry>
        </mxCell>
        <mxCell id="Cpn81vxbiHAbHOQu9__5-320" value="- BASE_URL: string" style="text;align=left;verticalAlign=top;spacingLeft=4;spacingRight=4;overflow=hidden;rotatable=0;points=[[0,0.5],[1,0.5]];portConstraint=eastwest;" parent="Cpn81vxbiHAbHOQu9__5-319" vertex="1">
          <mxGeometry y="26" width="160" height="26" as="geometry" />
        </mxCell>
        <mxCell id="Cpn81vxbiHAbHOQu9__5-365" value="" style="line;html=1;strokeWidth=1;align=left;verticalAlign=middle;spacingTop=-1;spacingLeft=3;spacingRight=3;rotatable=0;labelPosition=right;points=[];portConstraint=eastwest;" parent="Cpn81vxbiHAbHOQu9__5-319" vertex="1">
          <mxGeometry y="52" width="160" height="8" as="geometry" />
        </mxCell>
        <mxCell id="Cpn81vxbiHAbHOQu9__5-326" value="Test_Script" style="swimlane;fontStyle=2;align=center;verticalAlign=top;childLayout=stackLayout;horizontal=1;startSize=26;horizontalStack=0;resizeParent=1;resizeLast=0;collapsible=1;marginBottom=0;rounded=0;shadow=0;strokeWidth=1;" parent="WIyWlLk6GJQsqaUBKTNV-1" vertex="1">
          <mxGeometry x="1446" y="168" width="240" height="300" as="geometry">
            <mxRectangle x="230" y="140" width="160" height="26" as="alternateBounds" />
          </mxGeometry>
        </mxCell>
        <mxCell id="Cpn81vxbiHAbHOQu9__5-420" value="# auth_header_value: string" style="text;align=left;verticalAlign=top;spacingLeft=4;spacingRight=4;overflow=hidden;rotatable=0;points=[[0,0.5],[1,0.5]];portConstraint=eastwest;" parent="Cpn81vxbiHAbHOQu9__5-326" vertex="1">
          <mxGeometry y="26" width="240" height="26" as="geometry" />
        </mxCell>
        <mxCell id="Cpn81vxbiHAbHOQu9__5-423" value="# primitive_to_value_map: string" style="text;align=left;verticalAlign=top;spacingLeft=4;spacingRight=4;overflow=hidden;rotatable=0;points=[[0,0.5],[1,0.5]];portConstraint=eastwest;" parent="Cpn81vxbiHAbHOQu9__5-326" vertex="1">
          <mxGeometry y="52" width="240" height="26" as="geometry" />
        </mxCell>
        <mxCell id="Cpn81vxbiHAbHOQu9__5-422" value="# auth_header: string" style="text;align=left;verticalAlign=top;spacingLeft=4;spacingRight=4;overflow=hidden;rotatable=0;points=[[0,0.5],[1,0.5]];portConstraint=eastwest;" parent="Cpn81vxbiHAbHOQu9__5-326" vertex="1">
          <mxGeometry y="78" width="240" height="26" as="geometry" />
        </mxCell>
        <mxCell id="Cpn81vxbiHAbHOQu9__5-421" value="# auth_header_key: string" style="text;align=left;verticalAlign=top;spacingLeft=4;spacingRight=4;overflow=hidden;rotatable=0;points=[[0,0.5],[1,0.5]];portConstraint=eastwest;" parent="Cpn81vxbiHAbHOQu9__5-326" vertex="1">
          <mxGeometry y="104" width="240" height="26" as="geometry" />
        </mxCell>
        <mxCell id="Cpn81vxbiHAbHOQu9__5-390" value="# status_code: number" style="text;align=left;verticalAlign=top;spacingLeft=4;spacingRight=4;overflow=hidden;rotatable=0;points=[[0,0.5],[1,0.5]];portConstraint=eastwest;" parent="Cpn81vxbiHAbHOQu9__5-326" vertex="1">
          <mxGeometry y="130" width="240" height="26" as="geometry" />
        </mxCell>
        <mxCell id="Cpn81vxbiHAbHOQu9__5-391" value="# length: number" style="text;align=left;verticalAlign=top;spacingLeft=4;spacingRight=4;overflow=hidden;rotatable=0;points=[[0,0.5],[1,0.5]];portConstraint=eastwest;" parent="Cpn81vxbiHAbHOQu9__5-326" vertex="1">
          <mxGeometry y="156" width="240" height="26" as="geometry" />
        </mxCell>
        <mxCell id="Cpn81vxbiHAbHOQu9__5-419" value="# length: number" style="text;align=left;verticalAlign=top;spacingLeft=4;spacingRight=4;overflow=hidden;rotatable=0;points=[[0,0.5],[1,0.5]];portConstraint=eastwest;" parent="Cpn81vxbiHAbHOQu9__5-326" vertex="1">
          <mxGeometry y="182" width="240" height="26" as="geometry" />
        </mxCell>
        <mxCell id="Cpn81vxbiHAbHOQu9__5-328" value="" style="line;html=1;strokeWidth=1;align=left;verticalAlign=middle;spacingTop=-1;spacingLeft=3;spacingRight=3;rotatable=0;labelPosition=right;points=[];portConstraint=eastwest;" parent="Cpn81vxbiHAbHOQu9__5-326" vertex="1">
          <mxGeometry y="208" width="240" height="8" as="geometry" />
        </mxCell>
        <mxCell id="Cpn81vxbiHAbHOQu9__5-329" value="get(string): response obj" style="text;align=left;verticalAlign=top;spacingLeft=4;spacingRight=4;overflow=hidden;rotatable=0;points=[[0,0.5],[1,0.5]];portConstraint=eastwest;" parent="Cpn81vxbiHAbHOQu9__5-326" vertex="1">
          <mxGeometry y="216" width="240" height="26" as="geometry" />
        </mxCell>
        <mxCell id="Cpn81vxbiHAbHOQu9__5-394" value="api_status_code(string, string): true/false" style="text;align=left;verticalAlign=top;spacingLeft=4;spacingRight=4;overflow=hidden;rotatable=0;points=[[0,0.5],[1,0.5]];portConstraint=eastwest;" parent="Cpn81vxbiHAbHOQu9__5-326" vertex="1">
          <mxGeometry y="242" width="240" height="26" as="geometry" />
        </mxCell>
        <mxCell id="Cpn81vxbiHAbHOQu9__5-395" value="api_list_length(string, string): true/false" style="text;align=left;verticalAlign=top;spacingLeft=4;spacingRight=4;overflow=hidden;rotatable=0;points=[[0,0.5],[1,0.5]];portConstraint=eastwest;" parent="Cpn81vxbiHAbHOQu9__5-326" vertex="1">
          <mxGeometry y="268" width="240" height="26" as="geometry" />
        </mxCell>
        <mxCell id="Cpn81vxbiHAbHOQu9__5-386" style="edgeStyle=orthogonalEdgeStyle;rounded=0;orthogonalLoop=1;jettySize=auto;html=1;exitX=0.5;exitY=0;exitDx=0;exitDy=0;fontSize=24;entryX=0.5;entryY=1;entryDx=0;entryDy=0;" parent="WIyWlLk6GJQsqaUBKTNV-1" source="Cpn81vxbiHAbHOQu9__5-331" target="Cpn81vxbiHAbHOQu9__5-326" edge="1">
          <mxGeometry relative="1" as="geometry">
            <mxPoint x="1526" y="426" as="targetPoint" />
          </mxGeometry>
        </mxCell>
        <mxCell id="Cpn81vxbiHAbHOQu9__5-331" value="Helpers/Request" style="swimlane;fontStyle=2;align=center;verticalAlign=top;childLayout=stackLayout;horizontal=1;startSize=26;horizontalStack=0;resizeParent=1;resizeLast=0;collapsible=1;marginBottom=0;rounded=0;shadow=0;strokeWidth=1;" parent="WIyWlLk6GJQsqaUBKTNV-1" vertex="1">
          <mxGeometry x="1466" y="530" width="200" height="170" as="geometry">
            <mxRectangle x="230" y="140" width="160" height="26" as="alternateBounds" />
          </mxGeometry>
        </mxCell>
        <mxCell id="Cpn81vxbiHAbHOQu9__5-334" value="# URL: string" style="text;align=left;verticalAlign=top;spacingLeft=4;spacingRight=4;overflow=hidden;rotatable=0;points=[[0,0.5],[1,0.5]];portConstraint=eastwest;" parent="Cpn81vxbiHAbHOQu9__5-331" vertex="1">
          <mxGeometry y="26" width="200" height="26" as="geometry" />
        </mxCell>
        <mxCell id="Cpn81vxbiHAbHOQu9__5-333" value="" style="line;html=1;strokeWidth=1;align=left;verticalAlign=middle;spacingTop=-1;spacingLeft=3;spacingRight=3;rotatable=0;labelPosition=right;points=[];portConstraint=eastwest;" parent="Cpn81vxbiHAbHOQu9__5-331" vertex="1">
          <mxGeometry y="52" width="200" height="8" as="geometry" />
        </mxCell>
        <mxCell id="Cpn81vxbiHAbHOQu9__5-332" value="+ get(string): response obj" style="text;align=left;verticalAlign=top;spacingLeft=4;spacingRight=4;overflow=hidden;rotatable=0;points=[[0,0.5],[1,0.5]];portConstraint=eastwest;" parent="Cpn81vxbiHAbHOQu9__5-331" vertex="1">
          <mxGeometry y="60" width="200" height="26" as="geometry" />
        </mxCell>
        <mxCell id="Cpn81vxbiHAbHOQu9__5-335" value="+ post(string, string): response obj" style="text;align=left;verticalAlign=top;spacingLeft=4;spacingRight=4;overflow=hidden;rotatable=0;points=[[0,0.5],[1,0.5]];portConstraint=eastwest;" parent="Cpn81vxbiHAbHOQu9__5-331" vertex="1">
          <mxGeometry y="86" width="200" height="26" as="geometry" />
        </mxCell>
        <mxCell id="Cpn81vxbiHAbHOQu9__5-336" value="+ put(string): response obj" style="text;align=left;verticalAlign=top;spacingLeft=4;spacingRight=4;overflow=hidden;rotatable=0;points=[[0,0.5],[1,0.5]];portConstraint=eastwest;" parent="Cpn81vxbiHAbHOQu9__5-331" vertex="1">
          <mxGeometry y="112" width="200" height="26" as="geometry" />
        </mxCell>
        <mxCell id="Cpn81vxbiHAbHOQu9__5-337" value="+ delete(string): response obj" style="text;align=left;verticalAlign=top;spacingLeft=4;spacingRight=4;overflow=hidden;rotatable=0;points=[[0,0.5],[1,0.5]];portConstraint=eastwest;" parent="Cpn81vxbiHAbHOQu9__5-331" vertex="1">
          <mxGeometry y="138" width="200" height="26" as="geometry" />
        </mxCell>
        <mxCell id="Cpn81vxbiHAbHOQu9__5-338" value="Helpers/Logger" style="swimlane;fontStyle=2;align=center;verticalAlign=top;childLayout=stackLayout;horizontal=1;startSize=26;horizontalStack=0;resizeParent=1;resizeLast=0;collapsible=1;marginBottom=0;rounded=0;shadow=0;strokeWidth=1;" parent="WIyWlLk6GJQsqaUBKTNV-1" vertex="1">
          <mxGeometry x="1035" y="385" width="290" height="220" as="geometry">
            <mxRectangle x="230" y="140" width="160" height="26" as="alternateBounds" />
          </mxGeometry>
        </mxCell>
        <mxCell id="Cpn81vxbiHAbHOQu9__5-364" value="-" style="text;align=left;verticalAlign=top;spacingLeft=4;spacingRight=4;overflow=hidden;rotatable=0;points=[[0,0.5],[1,0.5]];portConstraint=eastwest;" parent="Cpn81vxbiHAbHOQu9__5-338" vertex="1">
          <mxGeometry y="26" width="290" height="26" as="geometry" />
        </mxCell>
        <mxCell id="Cpn81vxbiHAbHOQu9__5-363" value="" style="line;html=1;strokeWidth=1;align=left;verticalAlign=middle;spacingTop=-1;spacingLeft=3;spacingRight=3;rotatable=0;labelPosition=right;points=[];portConstraint=eastwest;" parent="Cpn81vxbiHAbHOQu9__5-338" vertex="1">
          <mxGeometry y="52" width="290" height="8" as="geometry" />
        </mxCell>
        <mxCell id="Cpn81vxbiHAbHOQu9__5-339" value="+ log(cls, boolean, boolean, boolean): result" style="text;align=left;verticalAlign=top;spacingLeft=4;spacingRight=4;overflow=hidden;rotatable=0;points=[[0,0.5],[1,0.5]];portConstraint=eastwest;" parent="Cpn81vxbiHAbHOQu9__5-338" vertex="1">
          <mxGeometry y="60" width="290" height="26" as="geometry" />
        </mxCell>
        <mxCell id="Cpn81vxbiHAbHOQu9__5-340" value="+ log_request(cls, string, string, string, number): result" style="text;align=left;verticalAlign=top;spacingLeft=4;spacingRight=4;overflow=hidden;rotatable=0;points=[[0,0.5],[1,0.5]];portConstraint=eastwest;" parent="Cpn81vxbiHAbHOQu9__5-338" vertex="1">
          <mxGeometry y="86" width="290" height="26" as="geometry" />
        </mxCell>
        <mxCell id="Cpn81vxbiHAbHOQu9__5-341" value="+ log_assertion(cls, string, string): result" style="text;align=left;verticalAlign=top;spacingLeft=4;spacingRight=4;overflow=hidden;rotatable=0;points=[[0,0.5],[1,0.5]];portConstraint=eastwest;" parent="Cpn81vxbiHAbHOQu9__5-338" vertex="1">
          <mxGeometry y="112" width="290" height="26" as="geometry" />
        </mxCell>
        <mxCell id="Cpn81vxbiHAbHOQu9__5-342" value="+ log_test_start(cls, string): result" style="text;align=left;verticalAlign=top;spacingLeft=4;spacingRight=4;overflow=hidden;rotatable=0;points=[[0,0.5],[1,0.5]];portConstraint=eastwest;" parent="Cpn81vxbiHAbHOQu9__5-338" vertex="1">
          <mxGeometry y="138" width="290" height="26" as="geometry" />
        </mxCell>
        <mxCell id="Cpn81vxbiHAbHOQu9__5-345" value="+ log_test_finish(cls, string): result" style="text;align=left;verticalAlign=top;spacingLeft=4;spacingRight=4;overflow=hidden;rotatable=0;points=[[0,0.5],[1,0.5]];portConstraint=eastwest;" parent="Cpn81vxbiHAbHOQu9__5-338" vertex="1">
          <mxGeometry y="164" width="290" height="26" as="geometry" />
        </mxCell>
        <mxCell id="Cpn81vxbiHAbHOQu9__5-346" value="+ write_to_file(cls, string, date): result" style="text;align=left;verticalAlign=top;spacingLeft=4;spacingRight=4;overflow=hidden;rotatable=0;points=[[0,0.5],[1,0.5]];portConstraint=eastwest;" parent="Cpn81vxbiHAbHOQu9__5-338" vertex="1">
          <mxGeometry y="190" width="290" height="26" as="geometry" />
        </mxCell>
        <mxCell id="Cpn81vxbiHAbHOQu9__5-388" style="edgeStyle=orthogonalEdgeStyle;rounded=0;orthogonalLoop=1;jettySize=auto;html=1;entryX=0.5;entryY=0;entryDx=0;entryDy=0;fontSize=24;" parent="WIyWlLk6GJQsqaUBKTNV-1" source="Cpn81vxbiHAbHOQu9__5-348" target="Cpn81vxbiHAbHOQu9__5-326" edge="1">
          <mxGeometry relative="1" as="geometry" />
        </mxCell>
        <mxCell id="Cpn81vxbiHAbHOQu9__5-348" value="Helpers/File_Reader" style="swimlane;fontStyle=2;align=center;verticalAlign=top;childLayout=stackLayout;horizontal=1;startSize=26;horizontalStack=0;resizeParent=1;resizeLast=0;collapsible=1;marginBottom=0;rounded=0;shadow=0;strokeWidth=1;" parent="WIyWlLk6GJQsqaUBKTNV-1" vertex="1">
          <mxGeometry x="1446" y="16" width="240" height="112" as="geometry">
            <mxRectangle x="230" y="140" width="160" height="26" as="alternateBounds" />
          </mxGeometry>
        </mxCell>
        <mxCell id="Cpn81vxbiHAbHOQu9__5-351" value="# BASE_PATH: string" style="text;align=left;verticalAlign=top;spacingLeft=4;spacingRight=4;overflow=hidden;rotatable=0;points=[[0,0.5],[1,0.5]];portConstraint=eastwest;" parent="Cpn81vxbiHAbHOQu9__5-348" vertex="1">
          <mxGeometry y="26" width="240" height="26" as="geometry" />
        </mxCell>
        <mxCell id="Cpn81vxbiHAbHOQu9__5-350" value="" style="line;html=1;strokeWidth=1;align=left;verticalAlign=middle;spacingTop=-1;spacingLeft=3;spacingRight=3;rotatable=0;labelPosition=right;points=[];portConstraint=eastwest;" parent="Cpn81vxbiHAbHOQu9__5-348" vertex="1">
          <mxGeometry y="52" width="240" height="8" as="geometry" />
        </mxCell>
        <mxCell id="Cpn81vxbiHAbHOQu9__5-349" value="+ read_file(string)" style="text;align=left;verticalAlign=top;spacingLeft=4;spacingRight=4;overflow=hidden;rotatable=0;points=[[0,0.5],[1,0.5]];portConstraint=eastwest;" parent="Cpn81vxbiHAbHOQu9__5-348" vertex="1">
          <mxGeometry y="60" width="240" height="26" as="geometry" />
        </mxCell>
        <mxCell id="Cpn81vxbiHAbHOQu9__5-356" value="+ get_file_with_json_extension(string)" style="text;align=left;verticalAlign=top;spacingLeft=4;spacingRight=4;overflow=hidden;rotatable=0;points=[[0,0.5],[1,0.5]];portConstraint=eastwest;" parent="Cpn81vxbiHAbHOQu9__5-348" vertex="1">
          <mxGeometry y="86" width="240" height="26" as="geometry" />
        </mxCell>
        <mxCell id="Cpn81vxbiHAbHOQu9__5-357" value="Data/Test_Data" style="swimlane;fontStyle=2;align=center;verticalAlign=top;childLayout=stackLayout;horizontal=1;startSize=26;horizontalStack=0;resizeParent=1;resizeLast=0;collapsible=1;marginBottom=0;rounded=0;shadow=0;strokeWidth=1;" parent="WIyWlLk6GJQsqaUBKTNV-1" vertex="1">
          <mxGeometry x="1781" y="83" width="160" height="100" as="geometry">
            <mxRectangle x="230" y="140" width="160" height="26" as="alternateBounds" />
          </mxGeometry>
        </mxCell>
        <mxCell id="Cpn81vxbiHAbHOQu9__5-358" value="# status_code: number" style="text;align=left;verticalAlign=top;spacingLeft=4;spacingRight=4;overflow=hidden;rotatable=0;points=[[0,0.5],[1,0.5]];portConstraint=eastwest;" parent="Cpn81vxbiHAbHOQu9__5-357" vertex="1">
          <mxGeometry y="26" width="160" height="26" as="geometry" />
        </mxCell>
        <mxCell id="Cpn81vxbiHAbHOQu9__5-359" value="# length: number" style="text;align=left;verticalAlign=top;spacingLeft=4;spacingRight=4;overflow=hidden;rotatable=0;points=[[0,0.5],[1,0.5]];portConstraint=eastwest;" parent="Cpn81vxbiHAbHOQu9__5-357" vertex="1">
          <mxGeometry y="52" width="160" height="26" as="geometry" />
        </mxCell>
        <mxCell id="Cpn81vxbiHAbHOQu9__5-366" value="" style="line;html=1;strokeWidth=1;align=left;verticalAlign=middle;spacingTop=-1;spacingLeft=3;spacingRight=3;rotatable=0;labelPosition=right;points=[];portConstraint=eastwest;" parent="Cpn81vxbiHAbHOQu9__5-357" vertex="1">
          <mxGeometry y="78" width="160" height="8" as="geometry" />
        </mxCell>
        <mxCell id="Cpn81vxbiHAbHOQu9__5-360" value="&lt;font style=&quot;font-size: 24px&quot;&gt;Class Diagram&lt;/font&gt;" style="text;html=1;align=center;verticalAlign=middle;resizable=0;points=[];autosize=1;strokeColor=none;fillColor=none;" parent="WIyWlLk6GJQsqaUBKTNV-1" vertex="1">
          <mxGeometry x="1481" y="745" width="170" height="20" as="geometry" />
        </mxCell>
        <mxCell id="Cpn81vxbiHAbHOQu9__5-368" value="Report/Reports" style="swimlane;fontStyle=2;align=center;verticalAlign=top;childLayout=stackLayout;horizontal=1;startSize=26;horizontalStack=0;resizeParent=1;resizeLast=0;collapsible=1;marginBottom=0;rounded=0;shadow=0;strokeWidth=1;" parent="WIyWlLk6GJQsqaUBKTNV-1" vertex="1">
          <mxGeometry x="1781" y="337" width="160" height="100" as="geometry">
            <mxRectangle x="230" y="140" width="160" height="26" as="alternateBounds" />
          </mxGeometry>
        </mxCell>
        <mxCell id="Cpn81vxbiHAbHOQu9__5-396" value="test_report_html" style="text;align=left;verticalAlign=top;spacingLeft=4;spacingRight=4;overflow=hidden;rotatable=0;points=[[0,0.5],[1,0.5]];portConstraint=eastwest;" parent="Cpn81vxbiHAbHOQu9__5-368" vertex="1">
          <mxGeometry y="26" width="160" height="26" as="geometry" />
        </mxCell>
        <mxCell id="Cpn81vxbiHAbHOQu9__5-372" value="test_report_log" style="text;align=left;verticalAlign=top;spacingLeft=4;spacingRight=4;overflow=hidden;rotatable=0;points=[[0,0.5],[1,0.5]];portConstraint=eastwest;" parent="Cpn81vxbiHAbHOQu9__5-368" vertex="1">
          <mxGeometry y="52" width="160" height="26" as="geometry" />
        </mxCell>
        <mxCell id="Cpn81vxbiHAbHOQu9__5-370" value="" style="line;html=1;strokeWidth=1;align=left;verticalAlign=middle;spacingTop=-1;spacingLeft=3;spacingRight=3;rotatable=0;labelPosition=right;points=[];portConstraint=eastwest;" parent="Cpn81vxbiHAbHOQu9__5-368" vertex="1">
          <mxGeometry y="78" width="160" height="8" as="geometry" />
        </mxCell>
        <mxCell id="Cpn81vxbiHAbHOQu9__5-385" style="edgeStyle=orthogonalEdgeStyle;rounded=0;orthogonalLoop=1;jettySize=auto;html=1;exitX=0.102;exitY=-0.013;exitDx=0;exitDy=0;entryX=0.997;entryY=0.154;entryDx=0;entryDy=0;fontSize=24;entryPerimeter=0;exitPerimeter=0;" parent="WIyWlLk6GJQsqaUBKTNV-1" source="Cpn81vxbiHAbHOQu9__5-373" target="Cpn81vxbiHAbHOQu9__5-395" edge="1">
          <mxGeometry relative="1" as="geometry" />
        </mxCell>
        <mxCell id="Cpn81vxbiHAbHOQu9__5-373" value="Helpers/Assert_UserManagement" style="swimlane;fontStyle=2;align=center;verticalAlign=top;childLayout=stackLayout;horizontal=1;startSize=26;horizontalStack=0;resizeParent=1;resizeLast=0;collapsible=1;marginBottom=0;rounded=0;shadow=0;strokeWidth=1;" parent="WIyWlLk6GJQsqaUBKTNV-1" vertex="1">
          <mxGeometry x="1701" y="480" width="240" height="120" as="geometry">
            <mxRectangle x="230" y="140" width="160" height="26" as="alternateBounds" />
          </mxGeometry>
        </mxCell>
        <mxCell id="Cpn81vxbiHAbHOQu9__5-374" value="-" style="text;align=left;verticalAlign=top;spacingLeft=4;spacingRight=4;overflow=hidden;rotatable=0;points=[[0,0.5],[1,0.5]];portConstraint=eastwest;" parent="Cpn81vxbiHAbHOQu9__5-373" vertex="1">
          <mxGeometry y="26" width="240" height="26" as="geometry" />
        </mxCell>
        <mxCell id="Cpn81vxbiHAbHOQu9__5-375" value="" style="line;html=1;strokeWidth=1;align=left;verticalAlign=middle;spacingTop=-1;spacingLeft=3;spacingRight=3;rotatable=0;labelPosition=right;points=[];portConstraint=eastwest;" parent="Cpn81vxbiHAbHOQu9__5-373" vertex="1">
          <mxGeometry y="52" width="240" height="8" as="geometry" />
        </mxCell>
        <mxCell id="Cpn81vxbiHAbHOQu9__5-376" value="+ api_status_code(string, string): true/false" style="text;align=left;verticalAlign=top;spacingLeft=4;spacingRight=4;overflow=hidden;rotatable=0;points=[[0,0.5],[1,0.5]];portConstraint=eastwest;" parent="Cpn81vxbiHAbHOQu9__5-373" vertex="1">
          <mxGeometry y="60" width="240" height="26" as="geometry" />
        </mxCell>
        <mxCell id="Cpn81vxbiHAbHOQu9__5-377" value="+ api_list_length(string, string): true/false" style="text;align=left;verticalAlign=top;spacingLeft=4;spacingRight=4;overflow=hidden;rotatable=0;points=[[0,0.5],[1,0.5]];portConstraint=eastwest;" parent="Cpn81vxbiHAbHOQu9__5-373" vertex="1">
          <mxGeometry y="86" width="240" height="26" as="geometry" />
        </mxCell>
        <mxCell id="Cpn81vxbiHAbHOQu9__5-382" style="edgeStyle=orthogonalEdgeStyle;rounded=0;orthogonalLoop=1;jettySize=auto;html=1;exitX=1;exitY=0.5;exitDx=0;exitDy=0;fontSize=24;entryX=0;entryY=0.25;entryDx=0;entryDy=0;" parent="WIyWlLk6GJQsqaUBKTNV-1" source="Cpn81vxbiHAbHOQu9__5-341" target="Cpn81vxbiHAbHOQu9__5-373" edge="1">
          <mxGeometry relative="1" as="geometry">
            <mxPoint x="1716" y="452" as="targetPoint" />
          </mxGeometry>
        </mxCell>
        <mxCell id="Cpn81vxbiHAbHOQu9__5-389" style="edgeStyle=orthogonalEdgeStyle;rounded=0;orthogonalLoop=1;jettySize=auto;html=1;exitX=1;exitY=0.5;exitDx=0;exitDy=0;entryX=0;entryY=0.5;entryDx=0;entryDy=0;fontSize=24;" parent="WIyWlLk6GJQsqaUBKTNV-1" source="Cpn81vxbiHAbHOQu9__5-320" target="Cpn81vxbiHAbHOQu9__5-335" edge="1">
          <mxGeometry relative="1" as="geometry" />
        </mxCell>
        <mxCell id="Cpn81vxbiHAbHOQu9__5-392" style="edgeStyle=orthogonalEdgeStyle;rounded=0;orthogonalLoop=1;jettySize=auto;html=1;exitX=1.006;exitY=0.252;exitDx=0;exitDy=0;entryX=-0.018;entryY=0.056;entryDx=0;entryDy=0;entryPerimeter=0;fontSize=24;exitPerimeter=0;" parent="WIyWlLk6GJQsqaUBKTNV-1" source="Cpn81vxbiHAbHOQu9__5-329" target="Cpn81vxbiHAbHOQu9__5-372" edge="1">
          <mxGeometry relative="1" as="geometry" />
        </mxCell>
        <mxCell id="Cpn81vxbiHAbHOQu9__5-393" style="edgeStyle=orthogonalEdgeStyle;rounded=0;orthogonalLoop=1;jettySize=auto;html=1;exitX=0;exitY=0.5;exitDx=0;exitDy=0;entryX=1;entryY=0.5;entryDx=0;entryDy=0;fontSize=24;" parent="WIyWlLk6GJQsqaUBKTNV-1" source="Cpn81vxbiHAbHOQu9__5-359" target="Cpn81vxbiHAbHOQu9__5-390" edge="1">
          <mxGeometry relative="1" as="geometry" />
        </mxCell>
        <mxCell id="Cpn81vxbiHAbHOQu9__5-431" style="edgeStyle=orthogonalEdgeStyle;rounded=0;orthogonalLoop=1;jettySize=auto;html=1;fontSize=24;" parent="WIyWlLk6GJQsqaUBKTNV-1" source="Cpn81vxbiHAbHOQu9__5-397" edge="1">
          <mxGeometry relative="1" as="geometry">
            <mxPoint x="1446" y="308" as="targetPoint" />
          </mxGeometry>
        </mxCell>
        <mxCell id="Cpn81vxbiHAbHOQu9__5-397" value="Helpers/Schema_Validation" style="swimlane;fontStyle=2;align=center;verticalAlign=top;childLayout=stackLayout;horizontal=1;startSize=26;horizontalStack=0;resizeParent=1;resizeLast=0;collapsible=1;marginBottom=0;rounded=0;shadow=0;strokeWidth=1;" parent="WIyWlLk6GJQsqaUBKTNV-1" vertex="1">
          <mxGeometry x="1080" y="263" width="246" height="90" as="geometry">
            <mxRectangle x="230" y="140" width="160" height="26" as="alternateBounds" />
          </mxGeometry>
        </mxCell>
        <mxCell id="Cpn81vxbiHAbHOQu9__5-398" value="-" style="text;align=left;verticalAlign=top;spacingLeft=4;spacingRight=4;overflow=hidden;rotatable=0;points=[[0,0.5],[1,0.5]];portConstraint=eastwest;" parent="Cpn81vxbiHAbHOQu9__5-397" vertex="1">
          <mxGeometry y="26" width="246" height="26" as="geometry" />
        </mxCell>
        <mxCell id="Cpn81vxbiHAbHOQu9__5-400" value="" style="line;html=1;strokeWidth=1;align=left;verticalAlign=middle;spacingTop=-1;spacingLeft=3;spacingRight=3;rotatable=0;labelPosition=right;points=[];portConstraint=eastwest;" parent="Cpn81vxbiHAbHOQu9__5-397" vertex="1">
          <mxGeometry y="52" width="246" height="8" as="geometry" />
        </mxCell>
        <mxCell id="Cpn81vxbiHAbHOQu9__5-401" value="+ validate_schema(string, string): true/flase" style="text;align=left;verticalAlign=top;spacingLeft=4;spacingRight=4;overflow=hidden;rotatable=0;points=[[0,0.5],[1,0.5]];portConstraint=eastwest;" parent="Cpn81vxbiHAbHOQu9__5-397" vertex="1">
          <mxGeometry y="60" width="246" height="26" as="geometry" />
        </mxCell>
        <mxCell id="Cpn81vxbiHAbHOQu9__5-403" value="Data/Schema" style="swimlane;fontStyle=2;align=center;verticalAlign=top;childLayout=stackLayout;horizontal=1;startSize=26;horizontalStack=0;resizeParent=1;resizeLast=0;collapsible=1;marginBottom=0;rounded=0;shadow=0;strokeWidth=1;" parent="WIyWlLk6GJQsqaUBKTNV-1" vertex="1">
          <mxGeometry x="1781" y="218" width="160" height="75" as="geometry">
            <mxRectangle x="230" y="140" width="160" height="26" as="alternateBounds" />
          </mxGeometry>
        </mxCell>
        <mxCell id="Cpn81vxbiHAbHOQu9__5-406" value="#schema_json" style="text;align=left;verticalAlign=top;spacingLeft=4;spacingRight=4;overflow=hidden;rotatable=0;points=[[0,0.5],[1,0.5]];portConstraint=eastwest;" parent="Cpn81vxbiHAbHOQu9__5-403" vertex="1">
          <mxGeometry y="26" width="160" height="26" as="geometry" />
        </mxCell>
        <mxCell id="Cpn81vxbiHAbHOQu9__5-407" value="" style="line;html=1;strokeWidth=1;align=left;verticalAlign=middle;spacingTop=-1;spacingLeft=3;spacingRight=3;rotatable=0;labelPosition=right;points=[];portConstraint=eastwest;" parent="Cpn81vxbiHAbHOQu9__5-403" vertex="1">
          <mxGeometry y="52" width="160" height="8" as="geometry" />
        </mxCell>
        <mxCell id="Cpn81vxbiHAbHOQu9__5-408" style="edgeStyle=orthogonalEdgeStyle;rounded=0;orthogonalLoop=1;jettySize=auto;html=1;exitX=0;exitY=0.5;exitDx=0;exitDy=0;entryX=1;entryY=0.5;entryDx=0;entryDy=0;fontSize=24;" parent="WIyWlLk6GJQsqaUBKTNV-1" source="Cpn81vxbiHAbHOQu9__5-406" target="Cpn81vxbiHAbHOQu9__5-390" edge="1">
          <mxGeometry relative="1" as="geometry" />
        </mxCell>
        <mxCell id="Cpn81vxbiHAbHOQu9__5-409" value="Helpers/Authentication" style="swimlane;fontStyle=2;align=center;verticalAlign=top;childLayout=stackLayout;horizontal=1;startSize=26;horizontalStack=0;resizeParent=1;resizeLast=0;collapsible=1;marginBottom=0;rounded=0;shadow=0;strokeWidth=1;" parent="WIyWlLk6GJQsqaUBKTNV-1" vertex="1">
          <mxGeometry x="1126" y="-40" width="239" height="159" as="geometry">
            <mxRectangle x="230" y="140" width="160" height="26" as="alternateBounds" />
          </mxGeometry>
        </mxCell>
        <mxCell id="Cpn81vxbiHAbHOQu9__5-413" value="# auth_header_value: string" style="text;align=left;verticalAlign=top;spacingLeft=4;spacingRight=4;overflow=hidden;rotatable=0;points=[[0,0.5],[1,0.5]];portConstraint=eastwest;" parent="Cpn81vxbiHAbHOQu9__5-409" vertex="1">
          <mxGeometry y="26" width="239" height="26" as="geometry" />
        </mxCell>
        <mxCell id="Cpn81vxbiHAbHOQu9__5-410" value="# auth_header_key: string" style="text;align=left;verticalAlign=top;spacingLeft=4;spacingRight=4;overflow=hidden;rotatable=0;points=[[0,0.5],[1,0.5]];portConstraint=eastwest;" parent="Cpn81vxbiHAbHOQu9__5-409" vertex="1">
          <mxGeometry y="52" width="239" height="26" as="geometry" />
        </mxCell>
        <mxCell id="Cpn81vxbiHAbHOQu9__5-414" value="# auth_header: string" style="text;align=left;verticalAlign=top;spacingLeft=4;spacingRight=4;overflow=hidden;rotatable=0;points=[[0,0.5],[1,0.5]];portConstraint=eastwest;" parent="Cpn81vxbiHAbHOQu9__5-409" vertex="1">
          <mxGeometry y="78" width="239" height="26" as="geometry" />
        </mxCell>
        <mxCell id="Cpn81vxbiHAbHOQu9__5-415" value="# primitive_to_value_map: string" style="text;align=left;verticalAlign=top;spacingLeft=4;spacingRight=4;overflow=hidden;rotatable=0;points=[[0,0.5],[1,0.5]];portConstraint=eastwest;" parent="Cpn81vxbiHAbHOQu9__5-409" vertex="1">
          <mxGeometry y="104" width="239" height="26" as="geometry" />
        </mxCell>
        <mxCell id="Cpn81vxbiHAbHOQu9__5-411" value="" style="line;html=1;strokeWidth=1;align=left;verticalAlign=middle;spacingTop=-1;spacingLeft=3;spacingRight=3;rotatable=0;labelPosition=right;points=[];portConstraint=eastwest;" parent="Cpn81vxbiHAbHOQu9__5-409" vertex="1">
          <mxGeometry y="130" width="239" height="8" as="geometry" />
        </mxCell>
        <mxCell id="Cpn81vxbiHAbHOQu9__5-426" style="edgeStyle=orthogonalEdgeStyle;rounded=0;orthogonalLoop=1;jettySize=auto;html=1;exitX=1;exitY=0.5;exitDx=0;exitDy=0;entryX=0.001;entryY=0.386;entryDx=0;entryDy=0;entryPerimeter=0;fontSize=24;" parent="WIyWlLk6GJQsqaUBKTNV-1" source="Cpn81vxbiHAbHOQu9__5-414" target="Cpn81vxbiHAbHOQu9__5-390" edge="1">
          <mxGeometry relative="1" as="geometry" />
        </mxCell>
      </root>
    </mxGraphModel>
  </diagram>
</mxfile>
